<mxfile host="app.diagrams.net" modified="2023-10-08T19:43:20.766Z" agent="Mozilla/5.0 (Windows NT 10.0; Win64; x64; rv:109.0) Gecko/20100101 Firefox/117.0" version="22.0.4" etag="VKRXXLMZZKycI4qcxDfB" type="github">
  <diagram name="Страница — 1" id="smmANrs71tsV1v-RkMDz">
    <mxGraphModel>
      <root>
        <mxCell id="0" />
        <mxCell id="1" parent="0" />
      </root>
    </mxGraphModel>
  </diagram>
</mxfile>
